<svg width="292" height="67" viewBox="0 0 292 67" fill="none" xmlns="http://www.w3.org/2000/svg">
    <rect width="292" height="67" fill="url(#paint0_linear_0_1)"/>
    <path d="M63.248 39.7969L72.5645 19.4062H77.9434L65.1641 45H61.5605L63.248 39.7969ZM60.6816 19.4062L63.6699 40.2188L63.7578 45H60.3477L55.6191 19.4062H60.6816ZM83.9551 25.9805L80.668 45H76.1152L79.4199 25.9805H83.9551ZM79.9824 21.0938C79.9707 20.3555 80.2109 19.7578 80.7031 19.3008C81.207 18.832 81.8223 18.5918 82.5488 18.5801C83.2402 18.5684 83.8379 18.7793 84.3418 19.2129C84.8574 19.6348 85.1152 20.209 85.1152 20.9355C85.127 21.6621 84.8809 22.2539 84.377 22.7109C83.873 23.168 83.2637 23.4023 82.5488 23.4141C81.8574 23.4258 81.2598 23.2207 80.7559 22.7988C80.252 22.377 79.9941 21.8086 79.9824 21.0938ZM91.9355 30.3047L89.3867 45H84.834L88.1387 25.9805H92.3926L91.9355 30.3047ZM90.4766 34.8047L89.2285 34.8223C89.3691 33.6855 89.6387 32.5664 90.0371 31.4648C90.4355 30.3516 90.9746 29.3496 91.6543 28.459C92.3457 27.5684 93.1836 26.8652 94.168 26.3496C95.1523 25.834 96.2949 25.5879 97.5957 25.6113C98.6387 25.6465 99.5 25.8633 100.18 26.2617C100.871 26.6602 101.404 27.1934 101.779 27.8613C102.154 28.5176 102.395 29.2734 102.5 30.1289C102.617 30.9844 102.623 31.875 102.518 32.8008L100.496 45H95.9258L97.9824 32.748C98.0527 32.0918 98.0293 31.5059 97.9121 30.9902C97.8066 30.4746 97.5664 30.0703 97.1914 29.7773C96.8164 29.4727 96.2656 29.3145 95.5391 29.3027C94.7656 29.2793 94.0859 29.4258 93.5 29.7422C92.9141 30.0586 92.416 30.4863 92.0059 31.0254C91.5957 31.5645 91.2676 32.168 91.0215 32.8359C90.7754 33.4922 90.5938 34.1484 90.4766 34.8047ZM126.283 40.2539C126.459 39.3281 126.307 38.5781 125.826 38.0039C125.346 37.418 124.719 36.9609 123.945 36.6328C123.184 36.293 122.439 36.0293 121.713 35.8418C121.021 35.666 120.318 35.4609 119.604 35.2266C118.9 34.9805 118.262 34.6641 117.688 34.2773C117.125 33.8906 116.691 33.4043 116.387 32.8184C116.094 32.2207 116.006 31.4824 116.123 30.6035C116.229 29.7598 116.504 29.0273 116.949 28.4062C117.395 27.7852 117.945 27.2695 118.602 26.8594C119.27 26.4492 119.99 26.1445 120.764 25.9453C121.549 25.7344 122.322 25.6289 123.084 25.6289C124.221 25.6289 125.258 25.8398 126.195 26.2617C127.145 26.6719 127.883 27.2871 128.41 28.1074C128.949 28.916 129.16 29.9355 129.043 31.166H127.672C127.754 30.2285 127.59 29.4492 127.18 28.8281C126.77 28.1953 126.195 27.7207 125.457 27.4043C124.719 27.0762 123.928 26.9121 123.084 26.9121C122.299 26.9121 121.508 27.041 120.711 27.2988C119.914 27.5449 119.217 27.9375 118.619 28.4766C118.033 29.0156 117.658 29.707 117.494 30.5508C117.377 31.2422 117.441 31.8223 117.688 32.291C117.934 32.7598 118.303 33.1465 118.795 33.4512C119.287 33.7441 119.82 33.9844 120.395 34.1719C120.98 34.3594 121.543 34.5234 122.082 34.6641C123.043 34.9219 123.98 35.2559 124.895 35.666C125.809 36.0762 126.535 36.6445 127.074 37.3711C127.625 38.0859 127.824 39.0293 127.672 40.2012C127.555 41.1035 127.262 41.877 126.793 42.5215C126.336 43.166 125.756 43.6992 125.053 44.1211C124.361 44.5312 123.605 44.8359 122.785 45.0352C121.977 45.2461 121.174 45.3516 120.377 45.3516C119.275 45.3516 118.221 45.1582 117.213 44.7715C116.217 44.3848 115.414 43.793 114.805 42.9961C114.195 42.1992 113.938 41.1855 114.031 39.9551L115.402 39.9727C115.367 40.9453 115.578 41.7363 116.035 42.3457C116.504 42.9551 117.125 43.3945 117.898 43.6641C118.672 43.9336 119.498 44.0684 120.377 44.0684C121.174 44.0566 121.994 43.9219 122.838 43.6641C123.693 43.3945 124.438 42.9844 125.07 42.4336C125.715 41.8711 126.119 41.1445 126.283 40.2539ZM138.359 44.0684C139.402 44.0684 140.357 43.8691 141.225 43.4707C142.092 43.0723 142.83 42.5098 143.439 41.7832C144.061 41.0449 144.506 40.1836 144.775 39.1992H146.129C145.871 40.4297 145.361 41.5078 144.6 42.4336C143.85 43.3594 142.936 44.0801 141.857 44.5957C140.779 45.0996 139.613 45.3516 138.359 45.3516C137.023 45.3516 135.91 45.0762 135.02 44.5254C134.141 43.9629 133.455 43.2246 132.963 42.3105C132.482 41.3848 132.172 40.3652 132.031 39.252C131.891 38.127 131.896 37.002 132.049 35.877L132.137 35.1211C132.324 33.9375 132.646 32.7832 133.104 31.6582C133.572 30.5215 134.182 29.502 134.932 28.5996C135.682 27.6855 136.578 26.959 137.621 26.4199C138.664 25.8809 139.848 25.6172 141.172 25.6289C142.473 25.6289 143.592 25.9219 144.529 26.5078C145.467 27.0938 146.17 27.8906 146.639 28.8984C147.107 29.8945 147.307 31.0312 147.236 32.3086H145.883C145.965 31.2891 145.824 30.375 145.461 29.5664C145.109 28.7578 144.564 28.1133 143.826 27.6328C143.1 27.1523 142.209 26.9121 141.154 26.9121C140.006 26.9004 138.992 27.1348 138.113 27.6152C137.234 28.084 136.484 28.7168 135.863 29.5137C135.242 30.2988 134.738 31.1836 134.352 32.168C133.965 33.1406 133.695 34.125 133.543 35.1211L133.42 35.8594C133.279 36.7969 133.244 37.7461 133.314 38.707C133.396 39.668 133.613 40.5527 133.965 41.3613C134.316 42.1699 134.85 42.8203 135.564 43.3125C136.291 43.8047 137.223 44.0566 138.359 44.0684ZM161.51 41.502L163.18 31.6758C163.344 30.6562 163.262 29.7949 162.934 29.0918C162.605 28.377 162.084 27.8379 161.369 27.4746C160.666 27.0996 159.816 26.9062 158.82 26.8945C157.906 26.8945 157.01 27.0645 156.131 27.4043C155.252 27.7324 154.484 28.2188 153.828 28.8633C153.172 29.4961 152.732 30.2754 152.51 31.2012L151.139 31.1836C151.291 30.293 151.619 29.502 152.123 28.8105C152.627 28.1191 153.242 27.5391 153.969 27.0703C154.695 26.6016 155.48 26.2441 156.324 25.998C157.168 25.752 158.018 25.6289 158.873 25.6289C160.104 25.6289 161.176 25.875 162.09 26.3672C163.016 26.8477 163.701 27.5391 164.146 28.4414C164.604 29.3438 164.738 30.4336 164.551 31.7109L162.951 41.0977C162.846 41.707 162.77 42.3281 162.723 42.9609C162.676 43.582 162.711 44.1973 162.828 44.8066L162.811 45H161.316C161.258 44.4141 161.252 43.8281 161.299 43.2422C161.346 42.6562 161.416 42.0762 161.51 41.502ZM163.197 34.207L163.057 35.4199H158.645C157.859 35.4316 157.027 35.5137 156.148 35.666C155.281 35.8066 154.443 36.0527 153.635 36.4043C152.838 36.7441 152.152 37.2188 151.578 37.8281C151.016 38.4258 150.646 39.1816 150.471 40.0957C150.342 40.8926 150.436 41.5898 150.752 42.1875C151.068 42.7734 151.537 43.2305 152.158 43.5586C152.779 43.875 153.465 44.0391 154.215 44.0508C155.387 44.0625 156.477 43.8574 157.484 43.4355C158.504 43.002 159.412 42.4043 160.209 41.6426C161.018 40.8809 161.686 39.9902 162.213 38.9707L162.67 40.0078C162.295 40.8281 161.809 41.5723 161.211 42.2402C160.613 42.8965 159.934 43.459 159.172 43.9277C158.422 44.3848 157.619 44.7422 156.764 45C155.908 45.2461 155.023 45.3633 154.109 45.3516C153.09 45.3398 152.176 45.123 151.367 44.7012C150.559 44.2793 149.938 43.6758 149.504 42.8906C149.082 42.1055 148.941 41.1797 149.082 40.1133C149.246 39 149.639 38.0684 150.26 37.3184C150.893 36.5684 151.666 35.9648 152.58 35.5078C153.494 35.0508 154.467 34.7227 155.498 34.5234C156.541 34.3125 157.537 34.207 158.486 34.207H163.197ZM171.969 30.0762L169.402 45H168.014L171.283 25.9805H172.637L171.969 30.0762ZM171.037 34.0312L170.51 33.2051C170.768 32.2441 171.148 31.3125 171.652 30.4102C172.156 29.5078 172.766 28.6992 173.48 27.9844C174.207 27.2578 175.027 26.6836 175.941 26.2617C176.855 25.8398 177.852 25.6289 178.93 25.6289C179.996 25.6289 180.869 25.8164 181.549 26.1914C182.24 26.5664 182.768 27.082 183.131 27.7383C183.494 28.3945 183.717 29.1445 183.799 29.9883C183.881 30.832 183.852 31.7227 183.711 32.6602L181.602 45H180.213L182.34 32.6602C182.492 31.6523 182.504 30.709 182.375 29.8301C182.246 28.9512 181.889 28.2422 181.303 27.7031C180.729 27.1641 179.855 26.9004 178.684 26.9121C177.711 26.9121 176.809 27.1172 175.977 27.5273C175.156 27.9375 174.412 28.4883 173.744 29.1797C173.088 29.8594 172.525 30.6211 172.057 31.4648C171.6 32.3086 171.26 33.1641 171.037 34.0312ZM191.129 30.0762L188.562 45H187.174L190.443 25.9805H191.797L191.129 30.0762ZM190.197 34.0312L189.67 33.2051C189.928 32.2441 190.309 31.3125 190.812 30.4102C191.316 29.5078 191.926 28.6992 192.641 27.9844C193.367 27.2578 194.188 26.6836 195.102 26.2617C196.016 25.8398 197.012 25.6289 198.09 25.6289C199.156 25.6289 200.029 25.8164 200.709 26.1914C201.4 26.5664 201.928 27.082 202.291 27.7383C202.654 28.3945 202.877 29.1445 202.959 29.9883C203.041 30.832 203.012 31.7227 202.871 32.6602L200.762 45H199.373L201.5 32.6602C201.652 31.6523 201.664 30.709 201.535 29.8301C201.406 28.9512 201.049 28.2422 200.463 27.7031C199.889 27.1641 199.016 26.9004 197.844 26.9121C196.871 26.9121 195.969 27.1172 195.137 27.5273C194.316 27.9375 193.572 28.4883 192.904 29.1797C192.248 29.8594 191.686 30.6211 191.217 31.4648C190.76 32.3086 190.42 33.1641 190.197 34.0312ZM213.4 45.3516C212.123 45.3516 211.021 45.082 210.096 44.543C209.17 43.9922 208.42 43.2656 207.846 42.3633C207.283 41.4492 206.896 40.4414 206.686 39.3398C206.486 38.2266 206.457 37.1016 206.598 35.9648L206.721 35.1914C206.885 34.0312 207.213 32.8887 207.705 31.7637C208.209 30.627 208.854 29.5957 209.639 28.6699C210.436 27.7441 211.355 27.0059 212.398 26.4551C213.453 25.8926 214.625 25.6172 215.914 25.6289C217.086 25.6289 218.076 25.8691 218.885 26.3496C219.693 26.8301 220.338 27.4688 220.818 28.2656C221.311 29.0625 221.639 29.959 221.803 30.9551C221.967 31.9395 221.984 32.9473 221.855 33.9785L221.697 35.1562H207.564L207.758 33.873H220.432L220.484 33.6445C220.672 32.5781 220.625 31.5293 220.344 30.498C220.074 29.4668 219.564 28.6172 218.814 27.9492C218.076 27.2695 217.098 26.9238 215.879 26.9121C214.777 26.9004 213.781 27.1406 212.891 27.6328C212 28.1133 211.227 28.7637 210.57 29.584C209.914 30.3926 209.375 31.2891 208.953 32.2734C208.543 33.2461 208.256 34.2188 208.092 35.1914L207.986 35.9473C207.846 36.8848 207.846 37.834 207.986 38.7949C208.139 39.7441 208.432 40.6172 208.865 41.4141C209.311 42.2109 209.914 42.8555 210.676 43.3477C211.438 43.8281 212.363 44.0742 213.453 44.0859C214.613 44.0977 215.662 43.8691 216.6 43.4004C217.549 42.9316 218.428 42.2988 219.236 41.502L220.098 42.1875C219.535 42.8672 218.902 43.4473 218.199 43.9277C217.508 44.3965 216.758 44.7539 215.949 45C215.141 45.2344 214.291 45.3516 213.4 45.3516ZM228.219 29.25L225.512 45H224.123L227.393 25.9805H228.764L228.219 29.25ZM235.795 25.8398L235.549 27.0879C235.35 27.0527 235.15 27.0293 234.951 27.0176C234.752 26.9941 234.547 26.9824 234.336 26.9824C233.281 26.9824 232.344 27.1992 231.523 27.6328C230.715 28.0664 230.012 28.6523 229.414 29.3906C228.828 30.1289 228.336 30.9434 227.938 31.834C227.551 32.7246 227.258 33.627 227.059 34.541L226.355 34.6816C226.543 33.6152 226.83 32.5488 227.217 31.4824C227.615 30.4043 228.137 29.4199 228.781 28.5293C229.438 27.6387 230.229 26.9297 231.154 26.4023C232.08 25.8633 233.17 25.5996 234.424 25.6113C234.658 25.6113 234.887 25.6348 235.109 25.6816C235.344 25.7168 235.572 25.7695 235.795 25.8398Z" fill="white"/>
    <path d="M104.678 42.1824L107.67 40.455L110.661 42.1824L110.661 45.6371L107.67 47.3645L104.678 45.6371L104.678 42.1824Z" fill="white"/>
    <path fill-rule="evenodd" clip-rule="evenodd" d="M105.4 42.5994L105.4 45.2201L107.67 46.5304L109.939 45.2201L109.939 42.5994L107.67 41.2891L105.4 42.5994ZM107.67 40.455L104.678 42.1824L104.678 45.6371L107.67 47.3645L110.661 45.6371L110.661 42.1824L107.67 40.455Z" fill="#6FB327"/>
    <path fill-rule="evenodd" clip-rule="evenodd" d="M105.795 42.9249L105.795 45.0572L107.642 46.1234L109.489 45.0572L109.489 42.9249L107.642 41.8588L105.795 42.9249ZM107.642 41.18L105.207 42.5856L105.207 45.3966L107.642 46.8021L110.076 45.3966L110.076 42.5856L107.642 41.18Z" fill="#6FB327"/>
    <path fill-rule="evenodd" clip-rule="evenodd" d="M106.237 43.0828L106.237 44.7847L107.711 45.6356L109.185 44.7847L109.185 43.0828L107.711 42.2319L106.237 43.0828ZM107.711 41.6902L105.768 42.812L105.768 45.0555L107.711 46.1773L109.654 45.0555L109.654 42.812L107.711 41.6902Z" fill="#6FB327"/>
    <defs>
        <linearGradient id="paint0_linear_0_1" x1="6.30898e-08" y1="36.5455" x2="288.198" y2="33.5076" gradientUnits="userSpaceOnUse">
            <stop stop-color="#006076"/>
            <stop offset="0.5" stop-color="#5A3A2F"/>
            <stop offset="1" stop-color="#BA7939"/>
        </linearGradient>
    </defs>
</svg>
